HIERARCHY
ROOT Storm:Solving:Root
{
	OFFSET 0.000000 0.000000 0.000000
	CHANNELS 6 Xposition Yposition Zposition Xrotation Yrotation Zrotation
	JOINT Storm:Solving:L_Clav
	{
		OFFSET 0.000000 0.000000 0.000000
		CHANNELS 6 Xposition Yposition Zposition Xrotation Yrotation Zrotation
		JOINT Storm:Solving:L_Scapula_Joint
		{
			OFFSET 4.000000 0.000000 0.000000
			CHANNELS 6 Xposition Yposition Zposition Xrotation Yrotation Zrotation
			JOINT Storm:Solving:L_Shoulder_Joint
			{
				OFFSET 4.002680 -10.770058 -11.084216
				CHANNELS 6 Xposition Yposition Zposition Xrotation Yrotation Zrotation
				JOINT Storm:Solving:L_Elbow_Joint
				{
					OFFSET 2.147804 8.035205 -15.161017
					CHANNELS 6 Xposition Yposition Zposition Xrotation Yrotation Zrotation
					JOINT Storm:Solving:L_Wrist_Joint
					{
						OFFSET -2.240269 9.040073 -20.029085
						CHANNELS 6 Xposition Yposition Zposition Xrotation Yrotation Zrotation
						JOINT Storm:Solving:L_Paw_Joint
						{
							OFFSET 0.706234 -1.834930 -5.721245
							CHANNELS 6 Xposition Yposition Zposition Xrotation Yrotation Zrotation
							End Site
							{
								OFFSET 1.343818 -4.244948 -3.510090
							}
						}
					}
				}
			}
		}
	}
	JOINT Storm:Solving:R_Clav
	{
		OFFSET 0.000000 0.000000 0.000000
		CHANNELS 6 Xposition Yposition Zposition Xrotation Yrotation Zrotation
		JOINT Storm:Solving:R_Scapula_Joint
		{
			OFFSET -4.000000 -0.000001 0.000000
			CHANNELS 6 Xposition Yposition Zposition Xrotation Yrotation Zrotation
			JOINT Storm:Solving:NewBone_3
			{
				OFFSET -4.614829 -9.889530 -11.686038
				CHANNELS 6 Xposition Yposition Zposition Xrotation Yrotation Zrotation
				JOINT Storm:Solving:R_Elbow_Joint
				{
					OFFSET -0.160743 5.491839 -16.404385
					CHANNELS 6 Xposition Yposition Zposition Xrotation Yrotation Zrotation
					JOINT Storm:Solving:R_Wrist_Joint
					{
						OFFSET 2.412016 -1.190895 -21.935680
						CHANNELS 6 Xposition Yposition Zposition Xrotation Yrotation Zrotation
						JOINT Storm:Solving:R_Paw_Joint
						{
							OFFSET -0.535018 -3.806499 -3.351765
							CHANNELS 6 Xposition Yposition Zposition Xrotation Yrotation Zrotation
							End Site
							{
								OFFSET -0.877549 -5.252174 -2.975662
							}
						}
					}
				}
			}
		}
	}
	JOINT Storm:Solving:Root_To_Spine_Dummy
	{
		OFFSET 0.000000 0.000000 0.000000
		CHANNELS 6 Xposition Yposition Zposition Xrotation Yrotation Zrotation
		JOINT Storm:Solving:Spine1
		{
			OFFSET 0.000000 3.827275 -0.000000
			CHANNELS 6 Xposition Yposition Zposition Xrotation Yrotation Zrotation
			JOINT Storm:Solving:Spine2
			{
				OFFSET 0.000001 16.939260 -0.000001
				CHANNELS 6 Xposition Yposition Zposition Xrotation Yrotation Zrotation
				JOINT Storm:Solving:Spine3
				{
					OFFSET 0.000002 14.393892 -0.000001
					CHANNELS 6 Xposition Yposition Zposition Xrotation Yrotation Zrotation
					JOINT Storm:Solving:Pelvis_Root
					{
						OFFSET 0.000002 14.393890 -0.000001
						CHANNELS 6 Xposition Yposition Zposition Xrotation Yrotation Zrotation
						JOINT Storm:Solving:L_Pelvis
						{
							OFFSET 0.000000 0.000000 0.000000
							CHANNELS 6 Xposition Yposition Zposition Xrotation Yrotation Zrotation
							JOINT Storm:Solving:LFemur_Joint
							{
								OFFSET 8.318080 6.728058 -6.780919
								CHANNELS 6 Xposition Yposition Zposition Xrotation Yrotation Zrotation
								JOINT Storm:Solving:LTibia_Joint
								{
									OFFSET 4.762119 -12.109562 -18.232958
									CHANNELS 6 Xposition Yposition Zposition Xrotation Yrotation Zrotation
									JOINT Storm:Solving:LAnkle_Joint
									{
										OFFSET 1.748854 12.690498 -18.426313
										CHANNELS 6 Xposition Yposition Zposition Xrotation Yrotation Zrotation
										JOINT Storm:Solving:LFoot_Joint
										{
											OFFSET 2.893215 -3.420891 -10.324425
											CHANNELS 6 Xposition Yposition Zposition Xrotation Yrotation Zrotation
											End Site
											{
												OFFSET 3.317142 -6.178677 -1.153622
											}
										}
									}
								}
							}
						}
						JOINT Storm:Solving:R_Pelvis
						{
							OFFSET 0.000000 0.000000 0.000000
							CHANNELS 6 Xposition Yposition Zposition Xrotation Yrotation Zrotation
							JOINT Storm:Solving:RFemur_Joint
							{
								OFFSET -8.082922 6.553699 -7.104603
								CHANNELS 6 Xposition Yposition Zposition Xrotation Yrotation Zrotation
								JOINT Storm:Solving:RTibia_Joint
								{
									OFFSET -3.034004 -11.551189 -18.950596
									CHANNELS 6 Xposition Yposition Zposition Xrotation Yrotation Zrotation
									JOINT Storm:Solving:RAnkle_Joint
									{
										OFFSET 0.163292 10.210636 -19.936810
										CHANNELS 6 Xposition Yposition Zposition Xrotation Yrotation Zrotation
										JOINT Storm:Solving:RFoot_Joint
										{
											OFFSET -0.793680 -0.101715 -9.967937
											CHANNELS 6 Xposition Yposition Zposition Xrotation Yrotation Zrotation
											End Site
											{
												OFFSET -4.434014 -4.525612 -1.490955
											}
										}
									}
								}
							}
						}
					}
				}
			}
		}
	}
	JOINT Storm:Solving:Root_To_Neck
	{
		OFFSET 0.000000 0.000000 0.000000
		CHANNELS 6 Xposition Yposition Zposition Xrotation Yrotation Zrotation
		JOINT Storm:Solving:Neck1
		{
			OFFSET 0.000000 -5.729186 4.185542
			CHANNELS 6 Xposition Yposition Zposition Xrotation Yrotation Zrotation
			JOINT Storm:Solving:Neck2
			{
				OFFSET 2.125778 -7.100437 5.862305
				CHANNELS 6 Xposition Yposition Zposition Xrotation Yrotation Zrotation
				JOINT Storm:Solving:Head
				{
					OFFSET -4.381103 -1.801980 5.689912
					CHANNELS 6 Xposition Yposition Zposition Xrotation Yrotation Zrotation
					JOINT Storm:Solving:Head_End
					{
						OFFSET -9.753127 -15.562062 2.579649
						CHANNELS 6 Xposition Yposition Zposition Xrotation Yrotation Zrotation
						End Site
						{
							OFFSET -4.085258 5.421284 17.259089
						}
					}
				}
			}
		}
	}
	JOINT Storm:Solving:R_Clav_1
	{
		OFFSET 0.000000 0.000000 0.000000
		CHANNELS 6 Xposition Yposition Zposition Xrotation Yrotation Zrotation
		End Site
		{
			OFFSET 0.000000 0.000000 0.010000
		}
	}
}
MOTION
Frames: 5
Frame Time: 0.041667
31.801786 35.818226 54.608925 20.883081 3.524995 15.888736 -0.000005 0.000000 -0.000002 -4.397937 -10.940647 -0.836273 4.000002 -0.000008 0.000005 -3.913543 22.924248 3.506013 4.002668 -10.770055 -11.084216 -3.726097 2.936348 -8.843086 2.147808 8.035207 -15.161010 -40.290603 -11.557295 -6.168327 -2.240266 9.040071 -20.029078 -11.976942 -7.379788 -11.940496 0.706234 -1.834930 -5.721245 19.382822 6.029932 -0.079386 -0.000005 0.000000 -0.000002 2.232659 5.628881 -0.219098 -4.000000 -0.000006 0.000004 3.899723 3.715532 -2.086136 -4.614835 -9.889530 -11.686047 13.783546 -2.594246 -3.639766 -0.160742 5.491838 -16.404388 -46.263135 -0.179625 -5.321424 2.412024 -1.190884 -21.935665 120.299452 -8.799149 0.296628 -0.535015 -3.806495 -3.351757 0.999945 -0.222088 0.100633 -0.000005 0.000000 -0.000002 0.000003 -0.000000 0.000002 -0.000001 3.827276 -0.000003 -16.458435 7.637513 -8.932671 0.000001 16.939266 -0.000002 -5.609518 8.767437 4.271589 0.000001 14.393896 0.000014 2.495316 -4.178337 0.428820 0.000001 14.393880 -0.000006 8.034196 -1.028155 7.813173 0.000010 0.000015 -0.000007 -0.000002 -0.000000 0.000003 8.318079 6.728068 -6.780924 10.932139 9.279980 -2.665846 4.762109 -12.109580 -18.232948 -8.878736 -1.451181 -2.064241 1.748847 12.690502 -18.426310 -2.405319 5.738545 -2.475400 2.893204 -3.420895 -10.324421 -11.577462 -5.760772 -1.841578 0.000009 0.000008 0.000003 0.000005 -0.000001 0.000007 -8.082922 6.553700 -7.104609 -24.789449 -13.438874 -8.890087 -3.034003 -11.551175 -18.950584 -5.052232 0.830376 0.430255 0.163288 10.210623 -19.936817 -6.918472 -8.841846 0.211672 -0.793688 -0.101696 -9.967939 23.156582 -21.151962 2.779037 -0.000005 0.000000 -0.000002 -0.000000 0.000001 0.000001 -0.000007 -5.729188 4.185544 0.788535 1.699880 1.693288 2.125777 -7.100430 5.862321 35.915675 16.289622 21.329282 -4.381113 -1.801968 5.689915 -15.392786 -5.220571 -6.608470 -9.753123 -15.562061 2.579647 -0.000005 -0.000004 -0.000001 -0.000005 0.000000 -0.000002 -0.000000 0.000001 0.000002 
32.110519 35.040344 54.578243 20.848596 3.234729 16.182808 0.000004 -0.000009 -0.000006 -3.985915 -11.744794 -0.812596 3.999996 0.000001 0.000006 -3.137679 23.397074 2.653382 4.002678 -10.770056 -11.084216 -3.695380 3.771089 -8.847728 2.147807 8.035205 -15.161018 -40.271041 -11.736610 -5.909131 -2.240264 9.040077 -20.029091 -11.901737 -7.591687 -11.857723 0.706236 -1.834927 -5.721235 18.318588 5.703640 -0.022067 0.000004 -0.000009 -0.000006 1.801631 6.191328 -0.194366 -4.000005 0.000011 -0.000003 3.276745 3.111831 -2.395679 -4.614826 -9.889534 -11.686039 14.114976 -2.079190 -2.975887 -0.160741 5.491833 -16.404394 -49.591207 -0.026599 -5.684336 2.412023 -1.190893 -21.935669 130.862955 -7.404610 4.836282 -0.535022 -3.806494 -3.351757 -6.833952 1.562348 -0.582921 0.000004 -0.000009 -0.000006 0.000000 0.000001 0.000004 0.000002 3.827274 -0.000005 -16.169155 7.779328 -9.012625 -0.000001 16.939266 -0.000009 -5.892484 8.997881 4.275949 0.000001 14.393900 0.000004 2.451020 -4.124136 0.404516 0.000001 14.393895 0.000004 8.227892 -1.452573 7.987438 -0.000001 0.000000 -0.000008 -0.000003 0.000004 0.000004 8.318087 6.728071 -6.780921 11.909207 9.357109 -2.833785 4.762117 -12.109558 -18.232944 -9.320005 -1.514586 -2.172141 1.748861 12.690500 -18.426306 -1.572189 6.280376 -2.530297 2.893215 -3.420897 -10.324430 -12.321507 -6.112132 -1.997947 0.000006 0.000000 -0.000003 0.000007 0.000006 0.000007 -8.082924 6.553698 -7.104596 -24.251789 -13.111887 -6.608396 -3.034008 -11.551183 -18.950609 -8.361792 1.351789 0.750722 0.163290 10.210615 -19.936813 -4.838509 -10.730765 0.420685 -0.793681 -0.101702 -9.967948 22.659450 -20.747991 2.632343 0.000004 -0.000009 -0.000006 0.000002 0.000001 0.000000 -0.000006 -5.729194 4.185539 0.440249 0.055907 -0.090388 2.125779 -7.100430 5.862305 37.964203 20.396214 20.467791 -4.381103 -1.801981 5.689911 -16.745986 -6.231075 -5.585143 -9.753119 -15.562059 2.579650 0.000001 -0.000002 0.000004 0.000004 -0.000009 -0.000006 0.000000 0.000001 0.000004 
32.423096 34.256905 54.543148 20.714234 2.973416 16.469382 -0.000004 -0.000002 -0.000005 -3.514781 -12.794197 -0.779277 3.999990 0.000003 0.000001 -2.298692 24.092150 1.774032 4.002677 -10.770061 -11.084215 -3.883974 4.255383 -8.337801 2.147809 8.035207 -15.161018 -40.119783 -11.230526 -6.002935 -2.240268 9.040071 -20.029091 -11.816974 -7.994166 -11.649455 0.706229 -1.834924 -5.721234 17.180975 5.353451 0.032480 -0.000004 -0.000002 -0.000005 1.356617 6.262786 -0.148020 -3.999993 0.000001 -0.000001 2.725994 3.058666 -2.681546 -4.614835 -9.889542 -11.686050 14.459970 -1.721121 -1.710929 -0.160743 5.491839 -16.404387 -53.123979 0.158654 -6.059269 2.412024 -1.190893 -21.935665 137.425360 -4.329638 9.611748 -0.535021 -3.806494 -3.351769 -10.609689 2.452970 -0.824289 -0.000004 -0.000002 -0.000005 -0.000000 -0.000000 -0.000001 0.000001 3.827278 -0.000006 -15.801723 7.798042 -9.065077 0.000003 16.939259 0.000004 -6.148376 9.051590 4.230129 -0.000001 14.393885 0.000004 2.329053 -4.294725 0.462105 0.000000 14.393891 0.000004 8.526154 -1.508031 8.001691 0.000003 0.000011 0.000002 -0.000001 0.000000 -0.000001 8.318082 6.728066 -6.780919 12.881458 9.506248 -3.057288 4.762124 -12.109559 -18.232948 -9.753200 -1.576000 -2.278513 1.748847 12.690513 -18.426319 -0.772434 6.805776 -2.596031 2.893212 -3.420885 -10.324434 -12.986308 -6.423743 -2.141333 0.000006 0.000008 0.000004 0.000004 0.000003 0.000002 -8.082933 6.553692 -7.104603 -23.729547 -12.741864 -4.376013 -3.034009 -11.551190 -18.950605 -11.089890 1.766688 1.036947 0.163292 10.210622 -19.936817 -2.716657 -11.482231 0.596403 -0.793695 -0.101719 -9.967948 22.631733 -20.725357 2.624272 -0.000004 -0.000002 -0.000005 0.000009 -0.000002 -0.000002 -0.000005 -5.729191 4.185528 -0.084736 -2.089297 -2.587793 2.125776 -7.100432 5.862303 40.942746 26.197469 18.462505 -4.381106 -1.801970 5.689906 -18.811868 -7.831821 -3.823230 -9.753127 -15.562063 2.579657 0.000000 -0.000003 -0.000002 -0.000004 -0.000002 -0.000005 -0.000001 -0.000001 -0.000001 
32.757462 33.462463 54.508366 20.507370 2.744620 16.854453 0.000001 0.000007 -0.000009 -3.025391 -14.047239 -0.734973 3.999993 0.000005 -0.000007 -1.399806 25.097520 0.787856 4.002683 -10.770070 -11.084211 -4.140367 4.543482 -7.822500 2.147812 8.035208 -15.161010 -39.862814 -10.786571 -5.920505 -2.240266 9.040068 -20.029089 -11.671249 -8.178781 -11.630312 0.706246 -1.834934 -5.721238 15.993474 4.986492 0.081959 0.000001 0.000007 -0.000009 0.985105 6.165720 -0.105816 -4.000002 0.000003 -0.000004 2.300035 3.288542 -2.989891 -4.614831 -9.889525 -11.686028 14.674689 -1.598757 -0.055651 -0.160745 5.491842 -16.404388 -56.925214 0.383458 -6.449249 2.412014 -1.190892 -21.935656 139.894145 -1.722818 12.980521 -0.535013 -3.806505 -3.351762 -10.736240 2.483092 -0.831365 0.000001 0.000007 -0.000009 0.000000 -0.000000 0.000001 -0.000004 3.827276 0.000001 -15.368185 7.676916 -9.186542 0.000007 16.939270 -0.000002 -6.449862 9.060631 4.167478 -0.000000 14.393896 0.000003 2.236760 -5.483829 0.582559 -0.000002 14.393888 -0.000001 8.862247 -0.524361 7.737371 -0.000004 -0.000004 0.000002 0.000003 0.000005 -0.000000 8.318086 6.728055 -6.780931 13.833887 9.751570 -3.197791 4.762106 -12.109553 -18.232954 -10.189096 -1.636962 -2.385977 1.748860 12.690518 -18.426310 0.149893 7.443234 -2.698457 2.893216 -3.420889 -10.324430 -13.716236 -6.763325 -2.302762 -0.000002 -0.000008 0.000011 0.000006 0.000013 0.000013 -8.082919 6.553686 -7.104607 -23.237553 -12.388477 -2.557298 -3.034017 -11.551187 -18.950592 -13.150282 2.070490 1.265876 0.163298 10.210627 -19.936800 -0.304885 -11.181508 0.661905 -0.793677 -0.101700 -9.967939 22.556338 -20.663788 2.602345 0.000001 0.000007 -0.000009 0.000009 -0.000001 0.000001 -0.000001 -5.729197 4.185544 -1.227800 -5.171205 -6.529650 2.125768 -7.100441 5.862308 46.408574 35.060881 13.473883 -4.381107 -1.801991 5.689909 -22.416467 -10.664516 -0.375211 -9.753128 -15.562053 2.579650 -0.000005 -0.000001 -0.000005 0.000001 0.000007 -0.000009 0.000000 -0.000000 -0.000001 
33.152374 32.662098 54.465244 20.233529 2.550183 17.345122 -0.000010 -0.000006 -0.000003 -2.525783 -15.772777 -0.686979 3.999995 -0.000001 0.000004 -0.449667 26.763844 -0.317491 4.002677 -10.770055 -11.084216 -4.443307 4.560036 -7.245238 2.147812 8.035193 -15.161009 -39.492304 -10.558399 -5.428008 -2.240273 9.040073 -20.029089 -11.261522 -7.834129 -12.045950 0.706233 -1.834931 -5.721247 14.151530 4.414916 0.143601 -0.000010 -0.000006 -0.000003 0.676156 6.140925 -0.072334 -3.999997 -0.000003 -0.000005 1.924442 3.577428 -3.567627 -4.614832 -9.889537 -11.686039 14.835477 -1.646862 1.902618 -0.160745 5.491839 -16.404394 -60.783834 0.637683 -6.829151 2.412027 -1.190899 -21.935661 139.717817 -1.032157 14.606213 -0.535019 -3.806493 -3.351755 -9.900679 2.284522 -0.783433 -0.000010 -0.000006 -0.000003 0.000002 0.000000 0.000002 0.000001 3.827273 0.000006 -14.860533 7.533882 -9.248484 0.000000 16.939264 -0.000006 -6.707203 9.144928 3.963396 -0.000001 14.393892 0.000015 2.124059 -5.883234 0.521445 -0.000003 14.393888 -0.000003 9.135474 -0.377778 7.713386 -0.000001 -0.000008 0.000004 -0.000004 -0.000002 -0.000005 8.318090 6.728062 -6.780914 14.870944 10.061667 -3.381673 4.762128 -12.109552 -18.232960 -10.641127 -1.699294 -2.497882 1.748860 12.690506 -18.426308 1.125658 7.951593 -2.754270 2.893215 -3.420881 -10.324426 -14.400332 -7.079088 -2.457800 -0.000002 -0.000015 0.000013 0.000004 0.000015 0.000012 -8.082924 6.553691 -7.104608 -23.218967 -12.325910 -2.331197 -3.034008 -11.551195 -18.950590 -13.810077 2.165965 1.341450 0.163292 10.210612 -19.936819 3.365906 -10.396609 0.593274 -0.793694 -0.101695 -9.967942 19.532958 -18.136693 1.790042 -0.000010 -0.000006 -0.000003 0.000009 -0.000000 0.000000 -0.000003 -5.729188 4.185539 -3.940981 -9.758740 -13.671331 2.125783 -7.100439 5.862308 60.758528 49.899921 -3.351005 -4.381106 -1.801991 5.689910 -29.503880 -17.566154 7.337554 -9.753130 -15.562065 2.579656 -0.000005 0.000002 0.000002 -0.000010 -0.000006 -0.000003 0.000003 -0.000000 0.000000 
